<mxfile host="app.diagrams.net" modified="2023-09-14T18:54:06.959Z" agent="Mozilla/5.0 (Windows NT 10.0; Win64; x64) AppleWebKit/537.36 (KHTML, like Gecko) Chrome/117.0.0.0 Safari/537.36" version="21.7.5" etag="P9PR52vqVazCHAcuy0P7" type="github">
  <diagram name="Page-1" id="ZhMEM1abJC5MeZp7Y_E7">
    <mxGraphModel>
      <root>
        <mxCell id="0" />
        <mxCell id="1" parent="0" />
      </root>
    </mxGraphModel>
  </diagram>
</mxfile>
